<svg xmlns="http://www.w3.org/2000/svg" xmlns:xlink="http://www.w3.org/1999/xlink" version="1.1" width="256" height="256" viewBox="0 0 256 256" xml:space="preserve">

<defs>
</defs>
<g style="stroke: none; stroke-width: 0; stroke-dasharray: none; stroke-linecap: butt; stroke-linejoin: miter; stroke-miterlimit: 10; fill: none; fill-rule: nonzero; opacity: 1;" transform="translate(1.4065934065934016 1.4065934065934016) scale(2.81 2.81)" >
	<path d="M 80.781 75.011 C 86.741 68.368 90 59.877 90 50.885 c 0 -15.974 -10.599 -30.135 -25.849 -34.669 C 57.511 8.119 47.436 2.942 36.173 2.942 C 16.227 2.942 0 19.169 0 39.115 C 0 48.107 3.259 56.6 9.219 63.24 l -8.633 8.634 c -0.572 0.572 -0.743 1.433 -0.434 2.18 S 1.191 75.288 2 75.288 h 25.144 c 6.85 7.485 16.517 11.77 26.683 11.77 H 88 c 0.809 0 1.538 -0.487 1.848 -1.234 c 0.31 -0.748 0.139 -1.607 -0.434 -2.18 L 80.781 75.011 z M 13.423 64.692 c 0.781 -0.781 0.781 -2.047 0 -2.828 C 7.347 55.788 4 47.709 4 39.115 C 4 21.375 18.433 6.942 36.173 6.942 s 32.173 14.433 32.173 32.173 S 53.913 71.288 36.173 71.288 H 6.828 L 13.423 64.692 z M 53.827 83.058 c -7.739 0 -15.152 -2.793 -20.95 -7.77 h 3.295 c 19.945 0 36.173 -16.228 36.173 -36.173 c 0 -6.171 -1.557 -11.984 -4.293 -17.073 C 78.848 27.383 86 38.516 86 50.885 c 0 8.593 -3.347 16.673 -9.423 22.75 c -0.781 0.781 -0.781 2.047 0 2.828 l 6.595 6.595 H 53.827 z" style="stroke: none; stroke-width: 1; stroke-dasharray: none; stroke-linecap: butt; stroke-linejoin: miter; stroke-miterlimit: 10; fill: rgb(0,0,0); fill-rule: nonzero; opacity: 1;" transform=" matrix(1 0 0 1 0 0) " stroke-linecap="round" />
	<path d="M 52.025 25.49 h -31.71 c -1.104 0 -2 -0.896 -2 -2 s 0.896 -2 2 -2 h 31.71 c 1.104 0 2 0.896 2 2 S 53.13 25.49 52.025 25.49 z" style="stroke: none; stroke-width: 1; stroke-dasharray: none; stroke-linecap: butt; stroke-linejoin: miter; stroke-miterlimit: 10; fill: rgb(0,0,0); fill-rule: nonzero; opacity: 1;" transform=" matrix(1 0 0 1 0 0) " stroke-linecap="round" />
	<path d="M 52.025 35.263 h -31.71 c -1.104 0 -2 -0.896 -2 -2 s 0.896 -2 2 -2 h 31.71 c 1.104 0 2 0.896 2 2 S 53.13 35.263 52.025 35.263 z" style="stroke: none; stroke-width: 1; stroke-dasharray: none; stroke-linecap: butt; stroke-linejoin: miter; stroke-miterlimit: 10; fill: rgb(0,0,0); fill-rule: nonzero; opacity: 1;" transform=" matrix(1 0 0 1 0 0) " stroke-linecap="round" />
	<path d="M 52.025 45.036 h -31.71 c -1.104 0 -2 -0.896 -2 -2 s 0.896 -2 2 -2 h 31.71 c 1.104 0 2 0.896 2 2 S 53.13 45.036 52.025 45.036 z" style="stroke: none; stroke-width: 1; stroke-dasharray: none; stroke-linecap: butt; stroke-linejoin: miter; stroke-miterlimit: 10; fill: rgb(0,0,0); fill-rule: nonzero; opacity: 1;" transform=" matrix(1 0 0 1 0 0) " stroke-linecap="round" />
	<path d="M 36.453 54.809 H 20.315 c -1.104 0 -2 -0.896 -2 -2 s 0.896 -2 2 -2 h 16.138 c 1.104 0 2 0.896 2 2 S 37.558 54.809 36.453 54.809 z" style="stroke: none; stroke-width: 1; stroke-dasharray: none; stroke-linecap: butt; stroke-linejoin: miter; stroke-miterlimit: 10; fill: rgb(0,0,0); fill-rule: nonzero; opacity: 1;" transform=" matrix(1 0 0 1 0 0) " stroke-linecap="round" />
</g>
</svg>